<?xml version="1.0" encoding="UTF-8"?><svg id="Layer_1" xmlns="http://www.w3.org/2000/svg" viewBox="0 0 598.9 118.57"><defs><style>.cls-1{fill:#469c45;}.cls-1,.cls-2,.cls-3,.cls-4,.cls-5,.cls-6{stroke-width:0px;}.cls-2{fill:#157e3f;}.cls-3{fill:#117e3f;}.cls-7{fill:#5a8c03;stroke:#18351a;stroke-miterlimit:10;}.cls-4{fill:#077724;}.cls-5{fill:#449744;}.cls-6{fill:#449844;}</style></defs><path class="cls-7" d="m595.8,7.97c-30.2-9.5-62.9-6.2-94.4-2.8-11.2,1.2-22.5,2.4-33.7,3.6-9.8,1.1-20.7-2.6-30.2,0-14.5,3.9-25,3.6-39.9,1.4-17-2.5-33-7.5-50.2-7.5-27.5,0-47.4,5.7-72.6,4.5-19.8-1-37.4-3.9-57.1-3.3-23.3.8-43,14.9-65.6,9.5-14.8-3.5-26.7-10-41.9-9.6-14.3.3-28.5,6.3-42.7,6.8-15.1.5-20.2,5.2-32.1,1.1S7.4,7.67,1.7,18.87l.9,97.9,594.3-6.2-1.1-102.6Z"/><path class="cls-4" d="m596.2,6.27c-29.6-9.1-60.8-6.5-91.2-3.3-7.9.8-15.7,1.7-23.5,2.5-8,.9-15.9,2-24,1.4-6.3-.5-12.7-1.4-19-.2-7.6,1.5-14.7,3.3-22.5,3.3-15.5,0-30.7-4.1-45.8-6.8-14.3-2.5-28.3-2.7-42.7-1.5-13.6,1.2-27.2,3.3-40.8,3.7-15.1.4-30-1.6-45-2.7-14.4-1.1-28.5-1.3-42.6,2.2-13.3,3.4-26.5,8.9-40.5,7.6-13.7-1.2-26.1-8.4-39.7-10.2-14.7-2-28.6,3.3-42.9,5.6-6.6,1.1-13.3,1-19.9,2.1-5.8,1-11.4,2.2-17.2.7-9.8-2.4-19.4-5.5-29.3-1.2C5.1,11.47,0,15.27,0,20.47c0,4.1.1,8.3.1,12.4.3,28,.5,55.9.8,83.9,0,.9.8,1.8,1.8,1.8,19.7-.2,39.3-.4,59-.6,47.4-.5,94.8-1,142.2-1.5,57.2-.6,114.4-1.2,171.6-1.8,49.6-.5,99.1-1,148.7-1.5,16.3-.2,32.5-.3,48.8-.5,7.6-.1,15.5.6,23.1-.2h1c.9,0,1.8-.8,1.8-1.8-.3-30-.7-59.9-1-89.9,0-4.3-.1-8.5-.1-12.8,0-2.3-3.5-2.3-3.5,0,.3,30,.7,59.9,1,89.9,0,4.3.1,8.5.1,12.8.6-.6,1.2-1.2,1.8-1.8-19.7.2-39.3.4-59,.6-47.4.5-94.8,1-142.2,1.5-57.2.6-114.4,1.2-171.6,1.8-49.6.5-99.1,1-148.7,1.5-16.3.2-32.5.3-48.8.5-5,.1-10,.1-15,.2-2.4,0-5.8-.6-8,.1-.3.1-.7,0-1,0,.6.6,1.2,1.2,1.7,1.8-.4-24-.7-47.8-.9-71.7-.1-6.1-.1-12.1-.2-18.2,0-2.2-.8-5.9-.1-8.1,1.4-4.2,8.2-6.7,12-7.5,6.1-1.2,12.4-.3,18.3,1.5,4.4,1.3,8.4,2.4,13.1,2.1,5.8-.4,11.4-2,17.1-2.5,6.2-.5,12.1-1,18.2-2.2,8.1-1.7,16.1-4,24.4-4.7,14.7-1.3,27.7,4.7,41.5,8.4,12.3,3.4,24.1,2,36.2-1.3,6.3-1.7,12.6-3.7,18.9-5.2,7.9-1.8,15.8-2.2,23.8-2.1,14.7.3,29.3,2.2,43.9,3.1,13.4.8,26.7-.2,40.1-1.6,13.9-1.5,28-3.3,42.1-2.4,15.5.9,30.5,5.4,45.9,7.6,7.2,1,14.5,1.7,21.9,1.3,7.4-.5,14.3-3,21.5-3.7,7.9-.7,15.8,1.4,23.7,1,8.5-.5,17-1.8,25.4-2.7,34.5-3.7,70.1-8.7,103.9,1.7,2.2.6,3.1-2.7.9-3.4Z"/><path class="cls-3" d="m414.1,85.87c-.4,0-.7-.2-1-.7-1.4-2.8-2.8-5.6-3.3-8.8-.1-.6-.1-1.2-.1-1.8s.1-1.1.7-1.4c.5-.2,1.1,0,1.5.4,1.4,1.3,2.7,2.7,3.6,4.4,1,1.8,1.8,3.6,2.4,5.5.2.5.4,1,1.1.8s.5-.8.4-1.3c-.7-4.3-1.5-8.6-1.4-13,.1-2,.1-4.1.9-6,.2-.5.4-1.2,1.1-1.2.7-.1.9.6,1.2,1,1.3,2.1,1.6,4.5,1.8,6.8.3,3.4.4,6.8.6,10.2,0,.5.1,1,.8,1s.8-.5.8-1.1c.1-2.8.1-5.6.8-8.3.4-1.6,1.2-2.9,2.3-4.1.3-.3.6-.6,1.1-.5s.5.6.6,1c.6,3.2.3,6.3-.7,9.3-.4,1-.7,2-1.1,3-.1.4-.3,1,.3,1.3.6.2.9-.2,1.1-.7.9-1.6,1.9-3.2,3.1-4.7.3-.4.6-.7.9-1.1,1.2-1.1,1.9-1,2.5.6.7,1.7.6,3.5.8,5.2,0,.4.1.8.1,1.1.1.4.2.8.7.8.5.1.7-.3.9-.6.2-.4.3-.8.5-1.1,1-2,2.1-4,4.1-5.2.1-.6-.7-.8-.7-1.3-1.5.7-2.4,2.1-3.3,3.4-.2.3-.4.7-.8,1.2-.2-1.1-.3-2-.4-2.8s-.4-1.7-1-2.4c-1.1-1.5-2.6-1.6-4.1-.2-.4.3-.8.7-1.3,1.2.2-1.7.3-3.2.3-4.8,0-1-.2-2-.4-2.9-.6-1.9-1.9-2.3-3.5-1.2-.4.3-.7.6-1,.8-.3.3-.7.5-.8,1-.1.5-.7.8-.7,1.3-.4.2-.5.6-.5,1-.1-.6-.1-1.1-.4-1.6h0c-.2-.7,0-1.5-.4-2.1-.4-1.2-.6-2.5-1.1-3.6-.1-.2-.2-.4-.3-.6-.5-.9-1.1-1.9-2.4-1.9s-2.1.9-2.7,2c-.8,1.5-1,3.1-1.1,4.8-.2,2.8.1,5.6.5,8.4,0,.3.1.7.1,1.3-1.1-1.5-1.9-2.9-3.1-4-.7-.7-1.4-1.4-2.3-1.8-1.2-.6-2.3-.3-2.8.9-1.1,2.4-.9,4.8-.1,7.1.7,1.9,1.6,3.6,2.5,5.3.5,1,.5.9-.5,1.1"/><path class="cls-6" d="m421.9,82.07c-.8-4.2-1.4-8.5-1.6-12.8"/><path class="cls-1" d="m415.4,83.47c-.8-1.5-1.7-3-2.2-4.7"/><path class="cls-6" d="m428,76.57c.3-1.5.7-3,1-4.5"/><path class="cls-3" d="m183.7,78.47c-.4,0-.7-.2-1-.7-1.4-2.8-2.8-5.6-3.3-8.8-.1-.6-.1-1.2-.1-1.8s.1-1.1.7-1.4c.5-.2,1.1,0,1.5.4,1.4,1.3,2.7,2.7,3.6,4.4,1,1.8,1.8,3.6,2.4,5.5.2.5.4,1,1.1.8s.5-.8.4-1.3c-.7-4.3-1.5-8.6-1.4-13,.1-2,.1-4.1.9-6,.2-.5.4-1.2,1.1-1.2.7-.1.9.6,1.2,1,1.3,2.1,1.6,4.5,1.8,6.8.3,3.4.4,6.8.6,10.2,0,.5.1,1,.8,1s.8-.5.8-1.1c.1-2.8.1-5.6.8-8.3.4-1.6,1.2-2.9,2.3-4.1.3-.3.6-.6,1.1-.5s.5.6.6,1c.6,3.2.3,6.3-.7,9.3-.4,1-.7,2-1.1,3-.1.4-.3,1,.3,1.3.6.2.9-.2,1.1-.7.9-1.6,1.9-3.2,3.1-4.7.3-.4.6-.7.9-1.1,1.2-1.1,1.9-1,2.5.6.7,1.7.6,3.5.8,5.2,0,.4.1.8.1,1.1.1.4.2.8.7.8.5.1.7-.3.9-.6.2-.4.3-.8.5-1.1,1-2,2.1-4,4.1-5.2.1-.6-.7-.8-.7-1.3-1.5.7-2.4,2.1-3.3,3.4-.2.3-.4.7-.8,1.2-.2-1.1-.3-2-.4-2.8s-.4-1.7-1-2.4c-1.1-1.5-2.6-1.6-4.1-.2-.4.3-.8.7-1.3,1.2.2-1.7.3-3.2.3-4.8,0-1-.2-2-.4-2.9-.6-1.9-1.9-2.3-3.5-1.2-.4.3-.7.6-1,.8-.3.3-.7.5-.8,1s-.7.8-.7,1.3c-.4.2-.5.6-.5,1-.1-.6-.1-1.1-.4-1.6h0c-.2-.7,0-1.5-.4-2.1-.4-1.2-.6-2.5-1.1-3.6-.1-.2-.2-.4-.3-.6-.5-.9-1.1-1.9-2.4-1.9s-2.1.9-2.7,2c-.8,1.5-1,3.1-1.1,4.8-.2,2.8.1,5.6.5,8.4,0,.3.1.7.1,1.3-1.1-1.5-1.9-2.9-3.1-4-.7-.7-1.4-1.4-2.3-1.8-1.2-.6-2.3-.3-2.8.9-1.1,2.4-.9,4.8-.1,7.1.7,1.9,1.6,3.6,2.5,5.3.5,1,.5.9-.5,1.1"/><path class="cls-6" d="m191.5,74.67c-.8-4.2-1.4-8.5-1.6-12.8"/><path class="cls-1" d="m185,76.07c-.8-1.5-1.7-3-2.2-4.7"/><path class="cls-6" d="m197.6,69.17c.3-1.5.7-3,1-4.5"/><path class="cls-3" d="m80.6,65.57c.4,0,.7-.2,1-.7,1.4-2.8,2.8-5.6,3.3-8.8.1-.6.1-1.2.1-1.8s-.1-1.1-.7-1.4c-.5-.2-1.1,0-1.5.4-1.4,1.3-2.7,2.7-3.6,4.4-1,1.8-1.8,3.6-2.4,5.5-.2.5-.4,1-1.1.8s-.5-.8-.4-1.3c.7-4.3,1.5-8.6,1.4-13-.1-2-.1-4.1-.9-6-.2-.5-.4-1.2-1.1-1.2-.7-.1-.9.6-1.2,1-1.3,2.1-1.6,4.5-1.8,6.8-.3,3.4-.4,6.8-.6,10.2,0,.5-.1,1-.8,1s-.8-.5-.8-1.1c-.1-2.8-.1-5.6-.8-8.3-.4-1.6-1.2-2.9-2.3-4.1-.3-.3-.6-.6-1.1-.5s-.5.6-.6,1c-.6,3.2-.3,6.3.7,9.3.4,1,.7,2,1.1,3,.1.4.3,1-.3,1.3-.6.2-.9-.2-1.1-.7-.9-1.6-1.9-3.2-3.1-4.7-.3-.4-.6-.7-.9-1.1-1.2-1.1-1.9-1-2.5.6-.7,1.7-.6,3.5-.8,5.2,0,.4-.1.8-.1,1.1-.1.4-.2.8-.7.8-.5.1-.7-.3-.9-.6-.2-.4-.3-.8-.5-1.1-1-2-2.1-4-4.1-5.2-.1-.6.7-.8.7-1.3,1.5.7,2.4,2.1,3.3,3.4.2.3.4.7.8,1.2.2-1.1.3-2,.4-2.8s.4-1.7,1-2.4c1.1-1.5,2.6-1.6,4.1-.2.4.3.8.7,1.3,1.2-.2-1.7-.3-3.2-.3-4.8,0-1,.2-2,.4-2.9.6-1.9,1.9-2.3,3.5-1.2.4.3.7.6,1,.8.3.3.7.5.8,1,.1.5.7.8.7,1.3.4.2.5.6.5,1,.1-.6.1-1.1.4-1.6h0c.2-.7,0-1.5.4-2.1.4-1.2.6-2.5,1.1-3.6.1-.2.2-.4.3-.6.5-.9,1.1-1.9,2.4-1.9s2.1.9,2.7,2c.8,1.5,1,3.1,1.1,4.8.2,2.8-.1,5.6-.5,8.4,0,.3-.1.7-.1,1.3,1.1-1.5,1.9-2.9,3.1-4,.7-.7,1.4-1.4,2.3-1.8,1.2-.6,2.3-.3,2.8.9,1.1,2.4.9,4.8.1,7.1-.7,1.9-1.6,3.6-2.5,5.3-.5,1-.5.9.5,1.1"/><path class="cls-6" d="m72.8,61.77c.8-4.2,1.4-8.5,1.6-12.8"/><path class="cls-1" d="m79.3,63.17c.8-1.5,1.7-3,2.2-4.7"/><path class="cls-6" d="m66.7,56.27c-.3-1.5-.7-3-1-4.5"/><path class="cls-2" d="m378.7,10.97c.1,3.4-1.3,6.1-3.4,8.6-1.1,1.4-2.4,2.5-3.9,3.5-.4.3-.8.6-1.2.1-.4-.6-.1-.9.4-1.3,2.6-1.9,4.8-4.2,6-7.3,1-2.8,1-5.5-.4-8.2-.6-1-1.1-1.3-2.3-.9-1.1.4-2,1.1-2.8,2-2.2,2.7-3.9,5.6-3.9,9.2,0,.4-.1.7-.5.9s-.7-.1-1-.3c-.7-.7-1.3-1.5-2.2-2-.5-.3-1.2-.7-1.7-.4-.5.4-.1,1.1.1,1.7.5,1.3,1.4,2.2,2.4,3.1.1.1.2.1.2.2.4.4,1.2.8.7,1.5-.6.8-1.1,0-1.6-.3-1.8-1.5-3.3-3.1-3.5-5.6-.2-2,.2-2.2,2.2-2.1,1.1,0,2,.6,2.8,1.3.5.4.6.2.7-.3.6-3.2,2.2-5.8,4.4-8.1.9-1,1.9-1.8,3.3-2.2,1.5-.4,2.8,0,3.6,1.3,1.2,1.6,1.6,3.6,1.6,5.6Z"/><path class="cls-5" d="m374,7.97c-.1,2.7-.8,5.2-2.3,7.4"/><path class="cls-3" d="m542,61.17c.4,0,.7-.2,1-.7,1.4-2.8,2.8-5.6,3.3-8.8.1-.6.1-1.2.1-1.8s-.1-1.1-.7-1.4c-.5-.2-1.1,0-1.5.4-1.4,1.3-2.7,2.7-3.6,4.4-1,1.8-1.8,3.6-2.4,5.5-.2.5-.4,1-1.1.8s-.5-.8-.4-1.3c.7-4.3,1.5-8.6,1.4-13-.1-2-.1-4.1-.9-6-.2-.5-.4-1.2-1.1-1.2-.7-.1-.9.6-1.2,1-1.3,2.1-1.6,4.5-1.8,6.8-.3,3.4-.4,6.8-.6,10.2,0,.5-.1,1-.8,1s-.8-.5-.8-1.1c-.1-2.8-.1-5.6-.8-8.3-.4-1.6-1.2-2.9-2.3-4.1-.3-.3-.6-.6-1.1-.5s-.5.6-.6,1c-.6,3.2-.3,6.3.7,9.3.4,1,.7,2,1.1,3,.1.4.3,1-.3,1.3-.6.2-.9-.2-1.1-.7-.9-1.6-1.9-3.2-3.1-4.7-.3-.4-.6-.7-.9-1.1-1.2-1.1-1.9-1-2.5.6-.7,1.7-.6,3.5-.8,5.2,0,.4-.1.8-.1,1.1-.1.4-.2.8-.7.8-.5.1-.7-.3-.9-.6-.2-.4-.3-.8-.5-1.1-1-2-2.1-4-4.1-5.2-.1-.6.7-.8.7-1.3,1.5.7,2.4,2.1,3.3,3.4.2.3.4.7.8,1.2.2-1.1.3-2,.4-2.8s.4-1.7,1-2.4c1.1-1.5,2.6-1.6,4.1-.2.4.3.8.7,1.3,1.2-.2-1.7-.3-3.2-.3-4.8,0-1,.2-2,.4-2.9.6-1.9,1.9-2.3,3.5-1.2.4.3.7.6,1,.8.3.3.7.5.8,1s.7.8.7,1.3c.4.2.5.6.5,1,.1-.6.1-1.1.4-1.6h0c.2-.7,0-1.5.4-2.1.4-1.2.6-2.5,1.1-3.6.1-.2.2-.4.3-.6.5-.9,1.1-1.9,2.4-1.9s2.1.9,2.7,2c.8,1.5,1,3.1,1.1,4.8.2,2.8-.1,5.6-.5,8.4,0,.3-.1.7-.1,1.3,1.1-1.5,1.9-2.9,3.1-4,.7-.7,1.4-1.4,2.3-1.8,1.2-.6,2.3-.3,2.8.9,1.1,2.4.9,4.8.1,7.1-.7,1.9-1.6,3.6-2.5,5.3-.5,1-.5.9.5,1.1"/><path class="cls-6" d="m534.2,57.37c.8-4.2,1.4-8.5,1.6-12.8"/><path class="cls-1" d="m540.7,58.77c.8-1.5,1.7-3,2.2-4.7"/><path class="cls-6" d="m528.1,51.87c-.3-1.5-.7-3-1-4.5"/><path class="cls-3" d="m291.8,63.07c-.4,0-.7-.2-1-.7-1.4-2.8-2.8-5.6-3.3-8.8-.1-.6-.1-1.2-.1-1.8s.1-1.1.7-1.4c.5-.2,1.1,0,1.5.4,1.4,1.3,2.7,2.7,3.6,4.4,1,1.8,1.8,3.6,2.4,5.5.2.5.4,1,1.1.8s.5-.8.4-1.3c-.7-4.3-1.5-8.6-1.4-13,.1-2,.1-4.1.9-6,.2-.5.4-1.2,1.1-1.2.7-.1.9.6,1.2,1,1.3,2.1,1.6,4.5,1.8,6.8.3,3.4.4,6.8.6,10.2,0,.5.1,1,.8,1s.8-.5.8-1.1c.1-2.8.1-5.6.8-8.3.4-1.6,1.2-2.9,2.3-4.1.3-.3.6-.6,1.1-.5s.5.6.6,1c.6,3.2.3,6.3-.7,9.3-.4,1-.7,2-1.1,3-.1.4-.3,1,.3,1.3.6.2.9-.2,1.1-.7.9-1.6,1.9-3.2,3.1-4.7.3-.4.6-.7.9-1.1,1.2-1.1,1.9-1,2.5.6.7,1.7.6,3.5.8,5.2,0,.4.1.8.1,1.1.1.4.2.8.7.8.5.1.7-.3.9-.6.2-.4.3-.8.5-1.1,1-2,2.1-4,4.1-5.2.1-.6-.7-.8-.7-1.3-1.5.7-2.4,2.1-3.3,3.4-.2.3-.4.7-.8,1.2-.2-1.1-.3-2-.4-2.8s-.4-1.7-1-2.4c-1.1-1.5-2.6-1.6-4.1-.2-.4.3-.8.7-1.3,1.2.2-1.7.3-3.2.3-4.8,0-1-.2-2-.4-2.9-.6-1.9-1.9-2.3-3.5-1.2-.4.3-.7.6-1,.8-.3.3-.7.5-.8,1-.1.5-.7.8-.7,1.3-.4.2-.5.6-.5,1-.1-.6-.1-1.1-.4-1.6h0c-.2-.7,0-1.5-.4-2.1-.4-1.2-.6-2.5-1.1-3.6-.1-.2-.2-.4-.3-.6-.5-.9-1.1-1.9-2.4-1.9s-2.1.9-2.7,2c-.8,1.5-1,3.1-1.1,4.8-.2,2.8.1,5.6.5,8.4,0,.3.1.7.1,1.3-1.1-1.5-1.9-2.9-3.1-4-.7-.7-1.4-1.4-2.3-1.8-1.2-.6-2.3-.3-2.8.9-1.1,2.4-.9,4.8-.1,7.1.7,1.9,1.6,3.6,2.5,5.3.5,1,.5.9-.5,1.1"/><path class="cls-6" d="m299.6,59.27c-.8-4.2-1.4-8.5-1.6-12.8"/><path class="cls-1" d="m293.1,60.67c-.8-1.5-1.7-3-2.2-4.7"/><path class="cls-6" d="m305.7,53.77c.3-1.5.7-3,1-4.5"/><path class="cls-3" d="m152.8,36.07c-.4,0-.7-.2-1-.7-1.4-2.8-2.8-5.6-3.3-8.8-.1-.6-.1-1.2-.1-1.8s.1-1.1.7-1.4c.5-.2,1.1,0,1.5.4,1.4,1.3,2.7,2.7,3.6,4.4,1,1.8,1.8,3.6,2.4,5.5.2.5.4,1,1.1.8s.5-.8.4-1.3c-.7-4.3-1.5-8.6-1.4-13,.1-2,.1-4.1.9-6,.2-.5.4-1.2,1.1-1.2.7-.1.9.6,1.2,1,1.3,2.1,1.6,4.5,1.8,6.8.3,3.4.4,6.8.6,10.2,0,.5.1,1,.8,1s.8-.5.8-1.1c.1-2.8.1-5.6.8-8.3.4-1.6,1.2-2.9,2.3-4.1.3-.3.6-.6,1.1-.5s.5.6.6,1c.6,3.2.3,6.3-.7,9.3-.4,1-.7,2-1.1,3-.1.4-.3,1,.3,1.3.6.2.9-.2,1.1-.7.9-1.6,1.9-3.2,3.1-4.7.3-.4.6-.7.9-1.1,1.2-1.1,1.9-1,2.5.6.7,1.7.6,3.5.8,5.2,0,.4.1.8.1,1.1.1.4.2.8.7.8.5.1.7-.3.9-.6.2-.4.3-.8.5-1.1,1-2,2.1-4,4.1-5.2.1-.6-.7-.8-.7-1.3-1.5.7-2.4,2.1-3.3,3.4-.2.3-.4.7-.8,1.2-.2-1.1-.3-2-.4-2.8s-.4-1.7-1-2.4c-1.1-1.5-2.6-1.6-4.1-.2-.4.3-.8.7-1.3,1.2.2-1.7.3-3.2.3-4.8,0-1-.2-2-.4-2.9-.6-1.9-1.9-2.3-3.5-1.2-.4.3-.7.6-1,.8-.3.3-.7.5-.8,1s-.7.8-.7,1.3c-.4.2-.5.6-.5,1-.1-.6-.1-1.1-.4-1.6h0c-.2-.7,0-1.5-.4-2.1-.4-1.2-.6-2.5-1.1-3.6-.1-.2-.2-.4-.3-.6-.5-.9-1.1-1.9-2.4-1.9s-2.1.9-2.7,2c-.8,1.5-1,3.1-1.1,4.8-.2,2.8.1,5.6.5,8.4,0,.3.1.7.1,1.3-1.1-1.5-1.9-2.9-3.1-4-.7-.7-1.4-1.4-2.3-1.8-1.2-.6-2.3-.3-2.8.9-1.1,2.4-.9,4.8-.1,7.1.7,1.9,1.6,3.6,2.5,5.3.5,1,.5.9-.5,1.1"/><path class="cls-6" d="m160.6,32.27c-.8-4.2-1.4-8.5-1.6-12.8"/><path class="cls-1" d="m154.1,33.67c-.8-1.5-1.7-3-2.2-4.7"/><path class="cls-6" d="m166.7,26.77c.3-1.5.7-3,1-4.5"/><path class="cls-3" d="m410.8,36.07c-.4,0-.7-.2-1-.7-1.4-2.8-2.8-5.6-3.3-8.8-.1-.6-.1-1.2-.1-1.8s.1-1.1.7-1.4c.5-.2,1.1,0,1.5.4,1.4,1.3,2.7,2.7,3.6,4.4,1,1.8,1.8,3.6,2.4,5.5.2.5.4,1,1.1.8s.5-.8.4-1.3c-.7-4.3-1.5-8.6-1.4-13,.1-2,.1-4.1.9-6,.2-.5.4-1.2,1.1-1.2.7-.1.9.6,1.2,1,1.3,2.1,1.6,4.5,1.8,6.8.3,3.4.4,6.8.6,10.2,0,.5.1,1,.8,1s.8-.5.8-1.1c.1-2.8.1-5.6.8-8.3.4-1.6,1.2-2.9,2.3-4.1.3-.3.6-.6,1.1-.5s.5.6.6,1c.6,3.2.3,6.3-.7,9.3-.4,1-.7,2-1.1,3-.1.4-.3,1,.3,1.3.6.2.9-.2,1.1-.7.9-1.6,1.9-3.2,3.1-4.7.3-.4.6-.7.9-1.1,1.2-1.1,1.9-1,2.5.6.7,1.7.6,3.5.8,5.2,0,.4.1.8.1,1.1.1.4.2.8.7.8.5.1.7-.3.9-.6.2-.4.3-.8.5-1.1,1-2,2.1-4,4.1-5.2.1-.6-.7-.8-.7-1.3-1.5.7-2.4,2.1-3.3,3.4-.2.3-.4.7-.8,1.2-.2-1.1-.3-2-.4-2.8s-.4-1.7-1-2.4c-1.1-1.5-2.6-1.6-4.1-.2-.4.3-.8.7-1.3,1.2.2-1.7.3-3.2.3-4.8,0-1-.2-2-.4-2.9-.6-1.9-1.9-2.3-3.5-1.2-.4.3-.7.6-1,.8-.3.3-.7.5-.8,1-.1.5-.7.8-.7,1.3-.4.2-.5.6-.5,1-.1-.6-.1-1.1-.4-1.6h0c-.2-.7,0-1.5-.4-2.1-.4-1.2-.6-2.5-1.1-3.6-.1-.2-.2-.4-.3-.6-.5-.9-1.1-1.9-2.4-1.9s-2.1.9-2.7,2c-.8,1.5-1,3.1-1.1,4.8-.2,2.8.1,5.6.5,8.4,0,.3.1.7.1,1.3-1.1-1.5-1.9-2.9-3.1-4-.7-.7-1.4-1.4-2.3-1.8-1.2-.6-2.3-.3-2.8.9-1.1,2.4-.9,4.8-.1,7.1.7,1.9,1.6,3.6,2.5,5.3.5,1,.5.9-.5,1.1"/><path class="cls-6" d="m418.6,32.27c-.8-4.2-1.4-8.5-1.6-12.8"/><path class="cls-1" d="m412.1,33.67c-.8-1.5-1.7-3-2.2-4.7"/><path class="cls-6" d="m424.7,26.77c.3-1.5.7-3,1-4.5"/><path class="cls-2" d="m41.8,18.37c.1,3.4-1.3,6.1-3.4,8.6-1.1,1.4-2.4,2.5-3.9,3.5-.4.3-.8.6-1.2.1-.4-.6-.1-.9.4-1.3,2.6-1.9,4.8-4.2,6-7.3,1-2.8,1-5.5-.4-8.2-.6-1-1.1-1.3-2.3-.9-1.1.4-2,1.1-2.8,2-2.2,2.7-3.9,5.6-3.9,9.2,0,.4-.1.7-.5.9s-.7-.1-1-.3c-.7-.7-1.3-1.5-2.2-2-.5-.3-1.2-.7-1.7-.4-.5.4-.1,1.1.1,1.7.5,1.3,1.4,2.2,2.4,3.1.1.1.2.1.2.2.4.4,1.2.8.7,1.5-.6.8-1.1,0-1.6-.3-1.8-1.5-3.3-3.1-3.5-5.6-.2-2,.2-2.2,2.2-2.1,1.1,0,2,.6,2.8,1.3.5.4.6.2.7-.3.6-3.2,2.2-5.8,4.4-8.1.9-1,1.9-1.8,3.3-2.2,1.5-.4,2.8,0,3.6,1.3,1.2,1.6,1.6,3.6,1.6,5.6Z"/><path class="cls-5" d="m37.1,17.67c-.1,2.7-.8,5.2-2.3,7.4"/><path class="cls-2" d="m232,9.77c-.1,3.4,1.3,6.1,3.4,8.6,1.1,1.4,2.4,2.5,3.9,3.5.4.3.8.6,1.2.1.4-.6.1-.9-.4-1.3-2.6-1.9-4.8-4.2-6-7.3-1-2.8-1-5.5.4-8.2.6-1,1.1-1.3,2.3-.9,1.1.4,2,1.1,2.8,2,2.2,2.7,3.9,5.6,3.9,9.2,0,.4.1.7.5.9s.7-.1,1-.3c.7-.7,1.3-1.5,2.2-2,.5-.3,1.2-.7,1.7-.4.5.4.1,1.1-.1,1.7-.5,1.3-1.4,2.2-2.4,3.1-.1.1-.2.1-.2.2-.4.4-1.2.8-.7,1.5.6.8,1.1,0,1.6-.3,1.8-1.5,3.3-3.1,3.5-5.6.2-2-.2-2.2-2.2-2.1-1.1,0-2,.6-2.8,1.3-.5.4-.6.2-.7-.3-.6-3.2-2.2-5.8-4.4-8.1-.9-1-1.9-1.8-3.3-2.2-1.5-.4-2.8,0-3.6,1.3-1.2,1.6-1.6,3.6-1.6,5.6Z"/><path class="cls-2" d="m538.6,16.77c-.1,3.4,1.3,6.1,3.4,8.6,1.1,1.4,2.4,2.5,3.9,3.5.4.3.8.6,1.2.1.4-.6.1-.9-.4-1.3-2.6-1.9-4.8-4.2-6-7.3-1-2.8-1-5.5.4-8.2.6-1,1.1-1.3,2.3-.9,1.1.4,2,1.1,2.8,2,2.2,2.7,3.9,5.6,3.9,9.2,0,.4.1.7.5.9s.7-.1,1-.3c.7-.7,1.3-1.5,2.2-2,.5-.3,1.2-.7,1.7-.4.5.4.1,1.1-.1,1.7-.5,1.3-1.4,2.2-2.4,3.1-.1.1-.2.1-.2.2-.4.4-1.2.8-.7,1.5.6.8,1.1,0,1.6-.3,1.8-1.5,3.3-3.1,3.5-5.6.2-2-.2-2.2-2.2-2.1-1.1,0-2,.6-2.8,1.3-.5.4-.6.2-.7-.3-.6-3.2-2.2-5.8-4.4-8.1-.9-1-1.9-1.8-3.3-2.2-1.5-.4-2.8,0-3.6,1.3-1.2,1.6-1.6,3.6-1.6,5.6Z"/><path class="cls-5" d="m543.3,16.07c.1,2.7.8,5.2,2.3,7.4"/></svg>