<?xml version="1.0" encoding="UTF-8"?><svg id="Layer_1" xmlns="http://www.w3.org/2000/svg" viewBox="0 0 595.1 289.6"><defs><style>.cls-1{fill:#542018;stroke-width:0px;}.cls-2{stroke:#0f2213;}.cls-2,.cls-3,.cls-4,.cls-5,.cls-6{stroke-miterlimit:10;}.cls-2,.cls-3,.cls-5,.cls-6{fill:#6d321d;}.cls-3{stroke:#621a00;}.cls-4{fill:none;stroke:#542018;}.cls-4,.cls-5{stroke-width:3px;}.cls-5,.cls-6{stroke:#3d1100;}</style></defs><path class="cls-6" d="m476.8,283.1c0,2.8,2.2,5,5,5h47.3c2.8,0,5-2.2,5-5V26.1c0-2.8-1.8-6.3-4-8l-20.6-15.4c-2.2-1.6-5.8-1.6-8,0l-20.6,15.4c-2.2,1.6-4,5.2-4,8v257h-.1Z"/><path class="cls-4" d="m476.8,283.1c0,2.8,2.2,5,5,5h47.3c2.8,0,5-2.2,5-5V26.1c0-2.8-1.8-6.3-4-8l-20.6-15.4c-2.2-1.6-5.8-1.6-8,0l-20.6,15.4c-2.2,1.6-4,5.2-4,8v257h-.1Z"/><path class="cls-1" d="m492.3,64.2c3.2,0,3.2-5,0-5s-3.2,5,0,5h0Z"/><path class="cls-1" d="m519.7,61.6c3.2,0,3.2-5,0-5-3.2,0-3.3,5,0,5h0Z"/><path class="cls-1" d="m520.1,244.5c3.2,0,3.2-5,0-5s-3.2,5,0,5h0Z"/><path class="cls-1" d="m495.5,243c3.2,0,3.2-5,0-5s-3.2,5,0,5h0Z"/><path class="cls-6" d="m474.7,283.1c0,2.8-2.2,5-5,5h-47.3c-2.8,0-5-2.2-5-5V26.1c0-2.8,1.8-6.3,4-8l20.6-15.4c2.2-1.6,5.8-1.6,8,0l20.6,15.4c2.2,1.6,4,5.2,4,8l.1,257h0Z"/><path class="cls-4" d="m474.7,283.1c0,2.8-2.2,5-5,5h-47.3c-2.8,0-5-2.2-5-5V26.1c0-2.8,1.8-6.3,4-8l20.6-15.4c2.2-1.6,5.8-1.6,8,0l20.6,15.4c2.2,1.6,4,5.2,4,8l.1,257h0Z"/><path class="cls-1" d="m459.2,64.2c3.2,0,3.2-5,0-5s-3.2,5,0,5h0Z"/><path class="cls-1" d="m431.9,61.6c3.2,0,3.2-5,0-5-3.2,0-3.2,5,0,5h0Z"/><path class="cls-1" d="m431.5,244.5c3.2,0,3.2-5,0-5s-3.2,5,0,5h0Z"/><path class="cls-1" d="m456,243c3.2,0,3.2-5,0-5s-3.2,5,0,5h0Z"/><path class="cls-2" d="m415.3,283.1c0,2.8-2.2,5-5,5h-47.3c-2.8,0-5-2.2-5-5V26.1c0-2.8,1.8-6.3,4-8l20.6-15.4c2.2-1.6,5.8-1.6,8,0l20.6,15.4c2.2,1.6,4,5.2,4,8l.1,257h0Z"/><path class="cls-4" d="m415.3,283.1c0,2.8-2.2,5-5,5h-47.3c-2.8,0-5-2.2-5-5V26.1c0-2.8,1.8-6.3,4-8l20.6-15.4c2.2-1.6,5.8-1.6,8,0l20.6,15.4c2.2,1.6,4,5.2,4,8l.1,257h0Z"/><path class="cls-1" d="m399.8,64.2c3.2,0,3.2-5,0-5s-3.2,5,0,5h0Z"/><path class="cls-1" d="m372.5,61.6c3.2,0,3.2-5,0-5-3.2,0-3.2,5,0,5h0Z"/><path class="cls-1" d="m372.1,244.5c3.2,0,3.2-5,0-5s-3.2,5,0,5h0Z"/><path class="cls-1" d="m396.6,243c3.2,0,3.2-5,0-5s-3.2,5,0,5h0Z"/><path class="cls-6" d="m298.6,283.1c0,2.8,2.2,5,5,5h47.3c2.8,0,5-2.2,5-5V26.1c0-2.8-1.8-6.3-4-8l-20.6-15.4c-2.2-1.6-5.8-1.6-8,0l-20.6,15.4c-2.2,1.6-4,5.2-4,8l-.1,257h0Z"/><path class="cls-4" d="m298.6,283.1c0,2.8,2.2,5,5,5h47.3c2.8,0,5-2.2,5-5V26.1c0-2.8-1.8-6.3-4-8l-20.6-15.4c-2.2-1.6-5.8-1.6-8,0l-20.6,15.4c-2.2,1.6-4,5.2-4,8l-.1,257h0Z"/><path class="cls-1" d="m314.1,64.2c3.2,0,3.2-5,0-5s-3.3,5,0,5h0Z"/><path class="cls-1" d="m341.4,61.6c3.2,0,3.2-5,0-5-3.2,0-3.2,5,0,5h0Z"/><path class="cls-1" d="m341.8,244.5c3.2,0,3.2-5,0-5s-3.2,5,0,5h0Z"/><path class="cls-1" d="m317.3,243c3.2,0,3.2-5,0-5s-3.2,5,0,5h0Z"/><path class="cls-6" d="m296.5,283.1c0,2.8-2.2,5-5,5h-47.3c-2.8,0-5-2.2-5-5V26.1c0-2.8,1.8-6.3,4-8l20.6-15.4c2.2-1.6,5.8-1.6,8,0l20.6,15.4c2.2,1.6,4,5.2,4,8v257h.1Z"/><path class="cls-4" d="m296.5,283.1c0,2.8-2.2,5-5,5h-47.3c-2.8,0-5-2.2-5-5V26.1c0-2.8,1.8-6.3,4-8l20.6-15.4c2.2-1.6,5.8-1.6,8,0l20.6,15.4c2.2,1.6,4,5.2,4,8v257h.1Z"/><path class="cls-1" d="m281,64.2c3.2,0,3.2-5,0-5s-3.2,5,0,5h0Z"/><path class="cls-1" d="m253.6,61.6c3.2,0,3.2-5,0-5-3.2,0-3.2,5,0,5h0Z"/><path class="cls-1" d="m253.2,244.5c3.2,0,3.2-5,0-5s-3.2,5,0,5h0Z"/><path class="cls-1" d="m277.8,243c3.2,0,3.2-5,0-5s-3.3,5,0,5h0Z"/><path class="cls-5" d="m179.7,283.1c0,2.8,2.2,5,5,5h47.3c2.8,0,5-2.2,5-5V26.1c0-2.8-1.8-6.3-4-8l-20.6-15.4c-2.2-1.6-5.8-1.6-8,0l-20.6,15.4c-2.2,1.6-4,5.2-4,8l-.1,257h0Z"/><path class="cls-4" d="m179.7,283.1c0,2.8,2.2,5,5,5h47.3c2.8,0,5-2.2,5-5V26.1c0-2.8-1.8-6.3-4-8l-20.6-15.4c-2.2-1.6-5.8-1.6-8,0l-20.6,15.4c-2.2,1.6-4,5.2-4,8l-.1,257h0Z"/><path class="cls-1" d="m195.2,64.2c3.2,0,3.2-5,0-5s-3.2,5,0,5h0Z"/><path class="cls-1" d="m222.6,61.6c3.2,0,3.2-5,0-5-3.2,0-3.3,5,0,5h0Z"/><path class="cls-1" d="m223,244.5c3.2,0,3.2-5,0-5s-3.2,5,0,5h0Z"/><path class="cls-1" d="m198.4,243c3.2,0,3.2-5,0-5s-3.2,5,0,5h0Z"/><path class="cls-6" d="m177.6,283.1c0,2.8-2.2,5-5,5h-47.3c-2.8,0-5-2.2-5-5V26.1c0-2.8,1.8-6.3,4-8l20.6-15.4c2.2-1.6,5.8-1.6,8,0l20.6,15.4c2.2,1.6,4,5.2,4,8l.1,257h0Z"/><path class="cls-4" d="m177.6,283.1c0,2.8-2.2,5-5,5h-47.3c-2.8,0-5-2.2-5-5V26.1c0-2.8,1.8-6.3,4-8l20.6-15.4c2.2-1.6,5.8-1.6,8,0l20.6,15.4c2.2,1.6,4,5.2,4,8l.1,257h0Z"/><path class="cls-1" d="m162.1,64.2c3.2,0,3.2-5,0-5s-3.2,5,0,5h0Z"/><path class="cls-1" d="m134.8,61.6c3.2,0,3.2-5,0-5-3.2,0-3.2,5,0,5h0Z"/><path class="cls-1" d="m134.4,244.5c3.2,0,3.2-5,0-5s-3.2,5,0,5h0Z"/><path class="cls-1" d="m158.9,243c3.2,0,3.2-5,0-5s-3.2,5,0,5h0Z"/><path class="cls-3" d="m60.9,283.1c0,2.8,2.2,5,5,5h47.3c2.8,0,5-2.2,5-5V26.1c0-2.8-1.8-6.3-4-8l-20.6-15.4c-2.2-1.6-5.8-1.6-8,0l-20.7,15.4c-2.2,1.6-4,5.2-4,8v257Z"/><path class="cls-4" d="m60.9,283.1c0,2.8,2.2,5,5,5h47.3c2.8,0,5-2.2,5-5V26.1c0-2.8-1.8-6.3-4-8l-20.6-15.4c-2.2-1.6-5.8-1.6-8,0l-20.7,15.4c-2.2,1.6-4,5.2-4,8v257Z"/><path class="cls-1" d="m76.4,64.2c3.2,0,3.2-5,0-5s-3.2,5,0,5h0Z"/><path class="cls-1" d="m103.7,61.6c3.2,0,3.2-5,0-5-3.2,0-3.2,5,0,5h0Z"/><path class="cls-1" d="m104.1,244.5c3.2,0,3.2-5,0-5s-3.2,5,0,5h0Z"/><path class="cls-1" d="m79.6,243c3.2,0,3.2-5,0-5s-3.2,5,0,5h0Z"/><path class="cls-6" d="m593.6,283.1c0,2.8-2.2,5-5,5h-47.3c-2.8,0-5-2.2-5-5V26.1c0-2.8,1.8-6.3,4-8l20.6-15.4c2.2-1.6,5.8-1.6,8,0l20.6,15.4c2.2,1.6,4,5.2,4,8v257h.1Z"/><path class="cls-4" d="m593.6,283.1c0,2.8-2.2,5-5,5h-47.3c-2.8,0-5-2.2-5-5V26.1c0-2.8,1.8-6.3,4-8l20.6-15.4c2.2-1.6,5.8-1.6,8,0l20.6,15.4c2.2,1.6,4,5.2,4,8v257h.1Z"/><path class="cls-1" d="m578.1,64.2c3.2,0,3.2-5,0-5s-3.2,5,0,5h0Z"/><path class="cls-1" d="m550.7,61.6c3.2,0,3.2-5,0-5-3.2,0-3.2,5,0,5h0Z"/><path class="cls-1" d="m550.3,244.5c3.2,0,3.2-5,0-5s-3.2,5,0,5h0Z"/><path class="cls-1" d="m574.9,243c3.2,0,3.2-5,0-5s-3.3,5,0,5h0Z"/><path class="cls-6" d="m1.5,283.1c0,2.8,2.2,5,5,5h47.3c2.8,0,5-2.2,5-5V26.1c0-2.8-1.8-6.3-4-8L34.1,2.7c-2.2-1.6-5.8-1.6-8,0L5.5,18.1c-2.2,1.6-4,5.2-4,8,0,0,0,257,0,257Z"/><path class="cls-4" d="m1.5,283.1c0,2.8,2.2,5,5,5h47.3c2.8,0,5-2.2,5-5V26.1c0-2.8-1.8-6.3-4-8L34.1,2.7c-2.2-1.6-5.8-1.6-8,0L5.5,18.1c-2.2,1.6-4,5.2-4,8,0,0,0,257,0,257Z"/><path class="cls-1" d="m17,64.2c3.2,0,3.2-5,0-5s-3.3,5,0,5h0Z"/><path class="cls-1" d="m44.3,61.6c3.2,0,3.2-5,0-5-3.2,0-3.2,5,0,5h0Z"/><path class="cls-1" d="m44.7,244.5c3.2,0,3.2-5,0-5s-3.2,5,0,5h0Z"/><path class="cls-1" d="m20.2,243c3.2,0,3.2-5,0-5s-3.2,5,0,5h0Z"/></svg>